<svg xmlns="http://www.w3.org/2000/svg" xmlns:xlink="http://www.w3.org/1999/xlink" width="600" zoomAndPan="magnify" viewBox="0 0 450 68.249996" height="91" preserveAspectRatio="xMidYMid meet" version="1.0"><defs><g/><clipPath id="017bb950fc"><path d="M 47 11.035156 L 68 11.035156 L 68 59.996094 L 47 59.996094 Z M 47 11.035156 " clip-rule="nonzero"/></clipPath></defs><path fill="#0cc0df" d="M 40.21875 52.863281 C 39.191406 52.863281 38.503906 52.519531 37.820312 51.832031 L 24.105469 38.121094 C 22.734375 36.75 22.734375 34.691406 24.105469 33.320312 L 37.820312 19.605469 C 39.191406 18.234375 41.246094 18.234375 42.617188 19.605469 C 43.992188 20.976562 43.992188 23.035156 42.617188 24.40625 L 31.304688 35.71875 L 42.617188 47.035156 C 43.992188 48.40625 43.992188 50.460938 42.617188 51.832031 C 41.933594 52.519531 41.246094 52.863281 40.21875 52.863281 Z M 40.21875 52.863281 " fill-opacity="1" fill-rule="nonzero"/><path fill="#0cc0df" d="M 74.503906 52.863281 C 73.476562 52.863281 72.789062 52.519531 72.101562 51.832031 C 70.730469 50.460938 70.730469 48.40625 72.101562 47.035156 L 83.417969 35.71875 L 72.101562 24.40625 C 70.730469 23.035156 70.730469 20.976562 72.101562 19.605469 C 73.476562 18.234375 75.53125 18.234375 76.902344 19.605469 L 90.617188 33.320312 C 91.988281 34.691406 91.988281 36.75 90.617188 38.121094 L 76.902344 51.832031 C 76.21875 52.519531 75.53125 52.863281 74.503906 52.863281 Z M 74.503906 52.863281 " fill-opacity="1" fill-rule="nonzero"/><g clip-path="url(#017bb950fc)"><path fill="#0cc0df" d="M 50.503906 59.71875 C 50.160156 59.71875 49.820312 59.71875 49.476562 59.375 C 47.761719 58.691406 46.734375 56.976562 47.417969 54.917969 L 61.132812 13.777344 C 61.816406 12.0625 63.53125 11.035156 65.589844 11.71875 C 67.304688 12.40625 68.332031 14.121094 67.648438 16.175781 L 53.933594 57.320312 C 53.246094 58.691406 51.875 59.71875 50.503906 59.71875 Z M 50.503906 59.71875 " fill-opacity="1" fill-rule="nonzero"/></g><g fill="#000000" fill-opacity="0.4"><g transform="translate(107.981346, 51.621159)"><g><path d="M 17.28125 -10.65625 L 15.015625 0 L 5.375 0 L 7.8125 -11.421875 L 3.46875 -28.203125 L 14.125 -28.203125 L 17.140625 -17.0625 L 23.8125 -28.203125 L 28.609375 -28.203125 Z M 17.28125 -10.65625 "/></g></g></g><g fill="#000000" fill-opacity="0.4"><g transform="translate(133.301386, 51.621159)"><g><path d="M 16.5625 -19.09375 L 25.625 -19.09375 L 21.546875 0 L 14.34375 0 L 13.546875 -2.84375 L 13.28125 -2.84375 C 12.507812 -1.925781 11.460938 -1.160156 10.140625 -0.546875 C 8.828125 0.0546875 7.503906 0.359375 6.171875 0.359375 C 4.398438 0.359375 3.007812 -0.09375 2 -1 C 0.988281 -1.90625 0.484375 -3.082031 0.484375 -4.53125 C 0.484375 -5.269531 0.609375 -6.191406 0.859375 -7.296875 C 1.117188 -8.410156 1.351562 -9.457031 1.5625 -10.4375 L 3.421875 -19.09375 L 12.4375 -19.09375 L 10.21875 -8.703125 C 10.15625 -8.460938 10.09375 -8.179688 10.03125 -7.859375 C 9.976562 -7.535156 9.921875 -7.21875 9.859375 -6.90625 C 9.796875 -6.59375 9.742188 -6.296875 9.703125 -6.015625 C 9.660156 -5.734375 9.640625 -5.503906 9.640625 -5.328125 C 9.640625 -4.890625 9.734375 -4.515625 9.921875 -4.203125 C 10.117188 -3.890625 10.46875 -3.734375 10.96875 -3.734375 C 11.5 -3.734375 12 -3.910156 12.46875 -4.265625 C 12.945312 -4.617188 13.320312 -4.957031 13.59375 -5.28125 Z M 16.5625 -19.09375 "/></g></g></g><g fill="#000000" fill-opacity="0.4"><g transform="translate(159.287744, 51.621159)"><g><path d="M 10.96875 -11.015625 L 21.328125 -19.09375 L 27.1875 -19.09375 L 18.34375 -11.859375 L 24.96875 0 L 15.015625 0 L 10.484375 -8.921875 L 8.625 0 L -0.4375 0 L 5.859375 -29.84375 L 14.96875 -29.84375 Z M 10.96875 -11.015625 "/></g></g></g><g fill="#09b3e4" fill-opacity="1"><g transform="translate(106.018123, 49.657934)"><g><path d="M 17.28125 -10.65625 L 15.015625 0 L 5.375 0 L 7.8125 -11.421875 L 3.46875 -28.203125 L 14.125 -28.203125 L 17.140625 -17.0625 L 23.8125 -28.203125 L 28.609375 -28.203125 Z M 17.28125 -10.65625 "/></g></g></g><g fill="#09b3e4" fill-opacity="1"><g transform="translate(131.338163, 49.657934)"><g><path d="M 16.5625 -19.09375 L 25.625 -19.09375 L 21.546875 0 L 14.34375 0 L 13.546875 -2.84375 L 13.28125 -2.84375 C 12.507812 -1.925781 11.460938 -1.160156 10.140625 -0.546875 C 8.828125 0.0546875 7.503906 0.359375 6.171875 0.359375 C 4.398438 0.359375 3.007812 -0.09375 2 -1 C 0.988281 -1.90625 0.484375 -3.082031 0.484375 -4.53125 C 0.484375 -5.269531 0.609375 -6.191406 0.859375 -7.296875 C 1.117188 -8.410156 1.351562 -9.457031 1.5625 -10.4375 L 3.421875 -19.09375 L 12.4375 -19.09375 L 10.21875 -8.703125 C 10.15625 -8.460938 10.09375 -8.179688 10.03125 -7.859375 C 9.976562 -7.535156 9.921875 -7.21875 9.859375 -6.90625 C 9.796875 -6.59375 9.742188 -6.296875 9.703125 -6.015625 C 9.660156 -5.734375 9.640625 -5.503906 9.640625 -5.328125 C 9.640625 -4.890625 9.734375 -4.515625 9.921875 -4.203125 C 10.117188 -3.890625 10.46875 -3.734375 10.96875 -3.734375 C 11.5 -3.734375 12 -3.910156 12.46875 -4.265625 C 12.945312 -4.617188 13.320312 -4.957031 13.59375 -5.28125 Z M 16.5625 -19.09375 "/></g></g></g><g fill="#09b3e4" fill-opacity="1"><g transform="translate(157.32452, 49.657934)"><g><path d="M 10.96875 -11.015625 L 21.328125 -19.09375 L 27.1875 -19.09375 L 18.34375 -11.859375 L 24.96875 0 L 15.015625 0 L 10.484375 -8.921875 L 8.625 0 L -0.4375 0 L 5.859375 -29.84375 L 14.96875 -29.84375 Z M 10.96875 -11.015625 "/></g></g></g><g fill="#000000" fill-opacity="0.4"><g transform="translate(190.944224, 52.625402)"><g><path d="M 25.046875 0 L 14.046875 0 L 8.84375 -21.578125 L 4.234375 0 L 0 0 L 6.34375 -29.84375 L 17.578125 -29.84375 L 22.515625 -7.984375 L 27.171875 -29.84375 L 31.484375 -29.84375 Z M 25.046875 0 "/></g></g></g><g fill="#000000" fill-opacity="0.4"><g transform="translate(221.213089, 52.625402)"><g><path d="M 12.59375 -17.203125 C 13.25 -17.828125 13.988281 -18.40625 14.8125 -18.9375 C 15.53125 -19.375 16.375 -19.78125 17.34375 -20.15625 C 18.3125 -20.539062 19.394531 -20.734375 20.59375 -20.734375 C 22.21875 -20.734375 23.5625 -20.316406 24.625 -19.484375 C 25.6875 -18.648438 26.21875 -17.515625 26.21875 -16.078125 C 26.21875 -15.671875 26.171875 -15.175781 26.078125 -14.59375 C 25.984375 -14.007812 25.875 -13.40625 25.75 -12.78125 C 25.625 -12.15625 25.488281 -11.519531 25.34375 -10.875 C 25.207031 -10.238281 25.09375 -9.671875 25 -9.171875 L 23.03125 0 L 13.484375 0 L 16.078125 -12.265625 C 16.140625 -12.671875 16.21875 -13.082031 16.3125 -13.5 C 16.40625 -13.925781 16.453125 -14.3125 16.453125 -14.65625 C 16.453125 -15.132812 16.332031 -15.519531 16.09375 -15.8125 C 15.863281 -16.113281 15.515625 -16.265625 15.046875 -16.265625 C 14.472656 -16.265625 13.925781 -16.0625 13.40625 -15.65625 C 12.894531 -15.25 12.5 -14.898438 12.21875 -14.609375 L 9.125 0 L -0.46875 0 L 3.8125 -20.203125 L 11.46875 -20.203125 L 12.3125 -17.203125 Z M 12.59375 -17.203125 "/></g></g></g><g fill="#000000" fill-opacity="0.4"><g transform="translate(248.755876, 52.625402)"><g><path d="M 19.171875 -20.203125 L 26.796875 -20.203125 L 22.9375 -1.921875 C 22.65625 -0.515625 22.179688 0.78125 21.515625 1.96875 C 20.859375 3.164062 19.941406 4.203125 18.765625 5.078125 C 17.597656 5.953125 16.128906 6.640625 14.359375 7.140625 C 12.585938 7.640625 10.429688 7.890625 7.890625 7.890625 C 7.421875 7.890625 6.859375 7.878906 6.203125 7.859375 C 5.546875 7.847656 4.875 7.832031 4.1875 7.8125 C 3.5 7.800781 2.835938 7.78125 2.203125 7.75 C 1.578125 7.71875 1.078125 7.6875 0.703125 7.65625 L 1.59375 4.28125 C 2.601562 4.4375 3.628906 4.519531 4.671875 4.53125 C 5.722656 4.550781 6.625 4.5625 7.375 4.5625 C 8.3125 4.5625 9.101562 4.472656 9.75 4.296875 C 10.394531 4.128906 10.925781 3.851562 11.34375 3.46875 C 11.769531 3.09375 12.113281 2.59375 12.375 1.96875 C 12.644531 1.34375 12.859375 0.578125 13.015625 -0.328125 L 13.578125 -3.390625 L 13.25 -3.390625 C 13.0625 -3.109375 12.785156 -2.769531 12.421875 -2.375 C 12.066406 -1.976562 11.609375 -1.597656 11.046875 -1.234375 C 10.484375 -0.878906 9.816406 -0.582031 9.046875 -0.34375 C 8.273438 -0.113281 7.40625 0 6.4375 0 C 5.34375 0 4.410156 -0.160156 3.640625 -0.484375 C 2.867188 -0.816406 2.25 -1.269531 1.78125 -1.84375 C 1.3125 -2.425781 0.96875 -3.117188 0.75 -3.921875 C 0.53125 -4.722656 0.421875 -5.59375 0.421875 -6.53125 C 0.421875 -6.9375 0.453125 -7.5625 0.515625 -8.40625 C 0.578125 -9.257812 0.722656 -10.21875 0.953125 -11.28125 C 1.191406 -12.34375 1.535156 -13.429688 1.984375 -14.546875 C 2.441406 -15.660156 3.054688 -16.671875 3.828125 -17.578125 C 4.597656 -18.484375 5.550781 -19.234375 6.6875 -19.828125 C 7.832031 -20.429688 9.222656 -20.734375 10.859375 -20.734375 C 11.359375 -20.734375 11.90625 -20.679688 12.5 -20.578125 C 13.09375 -20.484375 13.671875 -20.3125 14.234375 -20.0625 C 14.804688 -19.8125 15.3125 -19.453125 15.75 -18.984375 C 16.1875 -18.515625 16.53125 -17.90625 16.78125 -17.15625 L 17.0625 -17.15625 Z M 13.90625 -16.125 C 13.15625 -16.125 12.53125 -15.722656 12.03125 -14.921875 C 11.53125 -14.117188 11.125 -13.1875 10.8125 -12.125 C 10.5 -11.0625 10.269531 -10.003906 10.125 -8.953125 C 9.988281 -7.898438 9.921875 -7.125 9.921875 -6.625 C 9.921875 -6 10.019531 -5.472656 10.21875 -5.046875 C 10.425781 -4.628906 10.796875 -4.421875 11.328125 -4.421875 C 11.640625 -4.421875 11.941406 -4.5 12.234375 -4.65625 C 12.535156 -4.8125 12.816406 -4.988281 13.078125 -5.1875 C 13.347656 -5.394531 13.582031 -5.609375 13.78125 -5.828125 C 13.988281 -6.046875 14.140625 -6.21875 14.234375 -6.34375 L 15.984375 -14.5625 C 15.734375 -14.914062 15.441406 -15.265625 15.109375 -15.609375 C 14.773438 -15.953125 14.375 -16.125 13.90625 -16.125 Z M 13.90625 -16.125 "/></g></g></g><g fill="#000000" fill-opacity="0.4"><g transform="translate(275.922655, 52.625402)"><g><path d="M 14.8125 -20.734375 C 18.53125 -20.734375 21.238281 -20.070312 22.9375 -18.75 C 24.71875 -17.375 25.609375 -15.085938 25.609375 -11.890625 C 25.609375 -9.921875 25.28125 -8.144531 24.625 -6.5625 C 23.96875 -4.976562 23.046875 -3.664062 21.859375 -2.625 C 19.472656 -0.625 16.023438 0.375 11.515625 0.375 C 7.660156 0.375 4.90625 -0.359375 3.25 -1.828125 C 1.457031 -3.367188 0.5625 -5.671875 0.5625 -8.734375 C 0.5625 -10.773438 0.976562 -12.625 1.8125 -14.28125 C 2.644531 -15.945312 3.84375 -17.328125 5.40625 -18.421875 C 7.695312 -19.960938 10.832031 -20.734375 14.8125 -20.734375 Z M 11.609375 -2.8125 C 12.390625 -2.8125 13.066406 -3.25 13.640625 -4.125 C 14.222656 -5.007812 14.6875 -6.085938 15.03125 -7.359375 C 15.382812 -8.628906 15.644531 -9.941406 15.8125 -11.296875 C 15.988281 -12.660156 16.078125 -13.847656 16.078125 -14.859375 C 16.078125 -15.734375 15.988281 -16.394531 15.8125 -16.84375 C 15.644531 -17.300781 15.28125 -17.53125 14.71875 -17.53125 C 13.863281 -17.53125 13.128906 -17.078125 12.515625 -16.171875 C 11.910156 -15.265625 11.421875 -14.179688 11.046875 -12.921875 C 10.671875 -11.671875 10.394531 -10.382812 10.21875 -9.0625 C 10.050781 -7.75 9.96875 -6.6875 9.96875 -5.875 C 9.96875 -3.832031 10.515625 -2.8125 11.609375 -2.8125 Z M 11.609375 -2.8125 "/></g></g></g><g fill="#000000" fill-opacity="0.4"><g transform="translate(302.948427, 52.625402)"><g><path d="M 19.546875 -31.578125 L 29.1875 -31.578125 L 22.46875 0 L 14.859375 0 L 14 -3.015625 L 13.671875 -3.015625 C 13.484375 -2.722656 13.191406 -2.378906 12.796875 -1.984375 C 12.410156 -1.597656 11.921875 -1.222656 11.328125 -0.859375 C 10.734375 -0.503906 10.023438 -0.210938 9.203125 0.015625 C 8.390625 0.253906 7.453125 0.375 6.390625 0.375 C 5.296875 0.375 4.363281 0.210938 3.59375 -0.109375 C 2.820312 -0.441406 2.191406 -0.890625 1.703125 -1.453125 C 1.222656 -2.015625 0.875 -2.695312 0.65625 -3.5 C 0.4375 -4.300781 0.328125 -5.171875 0.328125 -6.109375 C 0.328125 -6.515625 0.359375 -7.164062 0.421875 -8.0625 C 0.484375 -8.957031 0.628906 -9.941406 0.859375 -11.015625 C 1.097656 -12.097656 1.441406 -13.210938 1.890625 -14.359375 C 2.347656 -15.503906 2.960938 -16.546875 3.734375 -17.484375 C 4.503906 -18.421875 5.453125 -19.195312 6.578125 -19.8125 C 7.703125 -20.425781 9.066406 -20.734375 10.671875 -20.734375 C 11.171875 -20.734375 11.703125 -20.679688 12.265625 -20.578125 C 12.828125 -20.484375 13.363281 -20.3125 13.875 -20.0625 C 14.394531 -19.8125 14.859375 -19.453125 15.265625 -18.984375 C 15.679688 -18.515625 15.984375 -17.90625 16.171875 -17.15625 L 16.5 -17.15625 Z M 13.8125 -16.125 C 13.0625 -16.125 12.4375 -15.707031 11.9375 -14.875 C 11.4375 -14.039062 11.03125 -13.078125 10.71875 -11.984375 C 10.40625 -10.890625 10.175781 -9.789062 10.03125 -8.6875 C 9.894531 -7.59375 9.828125 -6.78125 9.828125 -6.25 C 9.828125 -5.625 9.921875 -5.097656 10.109375 -4.671875 C 10.296875 -4.253906 10.65625 -4.046875 11.1875 -4.046875 C 11.5 -4.046875 11.800781 -4.113281 12.09375 -4.25 C 12.394531 -4.394531 12.675781 -4.566406 12.9375 -4.765625 C 13.207031 -4.972656 13.4375 -5.1875 13.625 -5.40625 C 13.8125 -5.625 13.96875 -5.8125 14.09375 -5.96875 L 15.9375 -14.515625 C 15.71875 -14.867188 15.425781 -15.222656 15.0625 -15.578125 C 14.695312 -15.941406 14.28125 -16.125 13.8125 -16.125 Z M 13.8125 -16.125 "/></g></g></g><g fill="#000000" fill-opacity="0.4"><g transform="translate(330.068208, 52.625402)"><g><path d="M 9.078125 0 L -0.46875 0 L 3.8125 -20.203125 L 13.4375 -20.203125 Z M 14.65625 -26.359375 C 14.65625 -25.640625 14.503906 -25.015625 14.203125 -24.484375 C 13.910156 -23.953125 13.519531 -23.5 13.03125 -23.125 C 12.550781 -22.75 12 -22.46875 11.375 -22.28125 C 10.75 -22.09375 10.109375 -22 9.453125 -22 C 8.191406 -22 7.140625 -22.296875 6.296875 -22.890625 C 5.453125 -23.484375 5.03125 -24.421875 5.03125 -25.703125 C 5.03125 -26.398438 5.171875 -27.019531 5.453125 -27.5625 C 5.734375 -28.113281 6.113281 -28.566406 6.59375 -28.921875 C 7.082031 -29.285156 7.648438 -29.5625 8.296875 -29.75 C 8.941406 -29.9375 9.609375 -30.03125 10.296875 -30.03125 C 11.515625 -30.03125 12.546875 -29.734375 13.390625 -29.140625 C 14.234375 -28.546875 14.65625 -27.617188 14.65625 -26.359375 Z M 14.65625 -26.359375 "/></g></g></g><g fill="#000000" fill-opacity="0.4"><g transform="translate(343.839599, 52.625402)"><g><path d="M 12.59375 -17.203125 C 13.25 -17.828125 13.988281 -18.40625 14.8125 -18.9375 C 15.53125 -19.375 16.375 -19.78125 17.34375 -20.15625 C 18.3125 -20.539062 19.394531 -20.734375 20.59375 -20.734375 C 22.21875 -20.734375 23.5625 -20.316406 24.625 -19.484375 C 25.6875 -18.648438 26.21875 -17.515625 26.21875 -16.078125 C 26.21875 -15.671875 26.171875 -15.175781 26.078125 -14.59375 C 25.984375 -14.007812 25.875 -13.40625 25.75 -12.78125 C 25.625 -12.15625 25.488281 -11.519531 25.34375 -10.875 C 25.207031 -10.238281 25.09375 -9.671875 25 -9.171875 L 23.03125 0 L 13.484375 0 L 16.078125 -12.265625 C 16.140625 -12.671875 16.21875 -13.082031 16.3125 -13.5 C 16.40625 -13.925781 16.453125 -14.3125 16.453125 -14.65625 C 16.453125 -15.132812 16.332031 -15.519531 16.09375 -15.8125 C 15.863281 -16.113281 15.515625 -16.265625 15.046875 -16.265625 C 14.472656 -16.265625 13.925781 -16.0625 13.40625 -15.65625 C 12.894531 -15.25 12.5 -14.898438 12.21875 -14.609375 L 9.125 0 L -0.46875 0 L 3.8125 -20.203125 L 11.46875 -20.203125 L 12.3125 -17.203125 Z M 12.59375 -17.203125 "/></g></g></g><g fill="#000000" fill-opacity="0.4"><g transform="translate(371.382392, 52.625402)"><g><path d="M 19.171875 -20.203125 L 26.796875 -20.203125 L 22.9375 -1.921875 C 22.65625 -0.515625 22.179688 0.78125 21.515625 1.96875 C 20.859375 3.164062 19.941406 4.203125 18.765625 5.078125 C 17.597656 5.953125 16.128906 6.640625 14.359375 7.140625 C 12.585938 7.640625 10.429688 7.890625 7.890625 7.890625 C 7.421875 7.890625 6.859375 7.878906 6.203125 7.859375 C 5.546875 7.847656 4.875 7.832031 4.1875 7.8125 C 3.5 7.800781 2.835938 7.78125 2.203125 7.75 C 1.578125 7.71875 1.078125 7.6875 0.703125 7.65625 L 1.59375 4.28125 C 2.601562 4.4375 3.628906 4.519531 4.671875 4.53125 C 5.722656 4.550781 6.625 4.5625 7.375 4.5625 C 8.3125 4.5625 9.101562 4.472656 9.75 4.296875 C 10.394531 4.128906 10.925781 3.851562 11.34375 3.46875 C 11.769531 3.09375 12.113281 2.59375 12.375 1.96875 C 12.644531 1.34375 12.859375 0.578125 13.015625 -0.328125 L 13.578125 -3.390625 L 13.25 -3.390625 C 13.0625 -3.109375 12.785156 -2.769531 12.421875 -2.375 C 12.066406 -1.976562 11.609375 -1.597656 11.046875 -1.234375 C 10.484375 -0.878906 9.816406 -0.582031 9.046875 -0.34375 C 8.273438 -0.113281 7.40625 0 6.4375 0 C 5.34375 0 4.410156 -0.160156 3.640625 -0.484375 C 2.867188 -0.816406 2.25 -1.269531 1.78125 -1.84375 C 1.3125 -2.425781 0.96875 -3.117188 0.75 -3.921875 C 0.53125 -4.722656 0.421875 -5.59375 0.421875 -6.53125 C 0.421875 -6.9375 0.453125 -7.5625 0.515625 -8.40625 C 0.578125 -9.257812 0.722656 -10.21875 0.953125 -11.28125 C 1.191406 -12.34375 1.535156 -13.429688 1.984375 -14.546875 C 2.441406 -15.660156 3.054688 -16.671875 3.828125 -17.578125 C 4.597656 -18.484375 5.550781 -19.234375 6.6875 -19.828125 C 7.832031 -20.429688 9.222656 -20.734375 10.859375 -20.734375 C 11.359375 -20.734375 11.90625 -20.679688 12.5 -20.578125 C 13.09375 -20.484375 13.671875 -20.3125 14.234375 -20.0625 C 14.804688 -19.8125 15.3125 -19.453125 15.75 -18.984375 C 16.1875 -18.515625 16.53125 -17.90625 16.78125 -17.15625 L 17.0625 -17.15625 Z M 13.90625 -16.125 C 13.15625 -16.125 12.53125 -15.722656 12.03125 -14.921875 C 11.53125 -14.117188 11.125 -13.1875 10.8125 -12.125 C 10.5 -11.0625 10.269531 -10.003906 10.125 -8.953125 C 9.988281 -7.898438 9.921875 -7.125 9.921875 -6.625 C 9.921875 -6 10.019531 -5.472656 10.21875 -5.046875 C 10.425781 -4.628906 10.796875 -4.421875 11.328125 -4.421875 C 11.640625 -4.421875 11.941406 -4.5 12.234375 -4.65625 C 12.535156 -4.8125 12.816406 -4.988281 13.078125 -5.1875 C 13.347656 -5.394531 13.582031 -5.609375 13.78125 -5.828125 C 13.988281 -6.046875 14.140625 -6.21875 14.234375 -6.34375 L 15.984375 -14.5625 C 15.734375 -14.914062 15.441406 -15.265625 15.109375 -15.609375 C 14.773438 -15.953125 14.375 -16.125 13.90625 -16.125 Z M 13.90625 -16.125 "/></g></g></g><g fill="#f57d11" fill-opacity="1"><g transform="translate(188.866963, 50.548142)"><g><path d="M 25.046875 0 L 14.046875 0 L 8.84375 -21.578125 L 4.234375 0 L 0 0 L 6.34375 -29.84375 L 17.578125 -29.84375 L 22.515625 -7.984375 L 27.171875 -29.84375 L 31.484375 -29.84375 Z M 25.046875 0 "/></g></g></g><g fill="#f57d11" fill-opacity="1"><g transform="translate(219.135827, 50.548142)"><g><path d="M 12.59375 -17.203125 C 13.25 -17.828125 13.988281 -18.40625 14.8125 -18.9375 C 15.53125 -19.375 16.375 -19.78125 17.34375 -20.15625 C 18.3125 -20.539062 19.394531 -20.734375 20.59375 -20.734375 C 22.21875 -20.734375 23.5625 -20.316406 24.625 -19.484375 C 25.6875 -18.648438 26.21875 -17.515625 26.21875 -16.078125 C 26.21875 -15.671875 26.171875 -15.175781 26.078125 -14.59375 C 25.984375 -14.007812 25.875 -13.40625 25.75 -12.78125 C 25.625 -12.15625 25.488281 -11.519531 25.34375 -10.875 C 25.207031 -10.238281 25.09375 -9.671875 25 -9.171875 L 23.03125 0 L 13.484375 0 L 16.078125 -12.265625 C 16.140625 -12.671875 16.21875 -13.082031 16.3125 -13.5 C 16.40625 -13.925781 16.453125 -14.3125 16.453125 -14.65625 C 16.453125 -15.132812 16.332031 -15.519531 16.09375 -15.8125 C 15.863281 -16.113281 15.515625 -16.265625 15.046875 -16.265625 C 14.472656 -16.265625 13.925781 -16.0625 13.40625 -15.65625 C 12.894531 -15.25 12.5 -14.898438 12.21875 -14.609375 L 9.125 0 L -0.46875 0 L 3.8125 -20.203125 L 11.46875 -20.203125 L 12.3125 -17.203125 Z M 12.59375 -17.203125 "/></g></g></g><g fill="#f57d11" fill-opacity="1"><g transform="translate(246.678615, 50.548142)"><g><path d="M 19.171875 -20.203125 L 26.796875 -20.203125 L 22.9375 -1.921875 C 22.65625 -0.515625 22.179688 0.78125 21.515625 1.96875 C 20.859375 3.164062 19.941406 4.203125 18.765625 5.078125 C 17.597656 5.953125 16.128906 6.640625 14.359375 7.140625 C 12.585938 7.640625 10.429688 7.890625 7.890625 7.890625 C 7.421875 7.890625 6.859375 7.878906 6.203125 7.859375 C 5.546875 7.847656 4.875 7.832031 4.1875 7.8125 C 3.5 7.800781 2.835938 7.78125 2.203125 7.75 C 1.578125 7.71875 1.078125 7.6875 0.703125 7.65625 L 1.59375 4.28125 C 2.601562 4.4375 3.628906 4.519531 4.671875 4.53125 C 5.722656 4.550781 6.625 4.5625 7.375 4.5625 C 8.3125 4.5625 9.101562 4.472656 9.75 4.296875 C 10.394531 4.128906 10.925781 3.851562 11.34375 3.46875 C 11.769531 3.09375 12.113281 2.59375 12.375 1.96875 C 12.644531 1.34375 12.859375 0.578125 13.015625 -0.328125 L 13.578125 -3.390625 L 13.25 -3.390625 C 13.0625 -3.109375 12.785156 -2.769531 12.421875 -2.375 C 12.066406 -1.976562 11.609375 -1.597656 11.046875 -1.234375 C 10.484375 -0.878906 9.816406 -0.582031 9.046875 -0.34375 C 8.273438 -0.113281 7.40625 0 6.4375 0 C 5.34375 0 4.410156 -0.160156 3.640625 -0.484375 C 2.867188 -0.816406 2.25 -1.269531 1.78125 -1.84375 C 1.3125 -2.425781 0.96875 -3.117188 0.75 -3.921875 C 0.53125 -4.722656 0.421875 -5.59375 0.421875 -6.53125 C 0.421875 -6.9375 0.453125 -7.5625 0.515625 -8.40625 C 0.578125 -9.257812 0.722656 -10.21875 0.953125 -11.28125 C 1.191406 -12.34375 1.535156 -13.429688 1.984375 -14.546875 C 2.441406 -15.660156 3.054688 -16.671875 3.828125 -17.578125 C 4.597656 -18.484375 5.550781 -19.234375 6.6875 -19.828125 C 7.832031 -20.429688 9.222656 -20.734375 10.859375 -20.734375 C 11.359375 -20.734375 11.90625 -20.679688 12.5 -20.578125 C 13.09375 -20.484375 13.671875 -20.3125 14.234375 -20.0625 C 14.804688 -19.8125 15.3125 -19.453125 15.75 -18.984375 C 16.1875 -18.515625 16.53125 -17.90625 16.78125 -17.15625 L 17.0625 -17.15625 Z M 13.90625 -16.125 C 13.15625 -16.125 12.53125 -15.722656 12.03125 -14.921875 C 11.53125 -14.117188 11.125 -13.1875 10.8125 -12.125 C 10.5 -11.0625 10.269531 -10.003906 10.125 -8.953125 C 9.988281 -7.898438 9.921875 -7.125 9.921875 -6.625 C 9.921875 -6 10.019531 -5.472656 10.21875 -5.046875 C 10.425781 -4.628906 10.796875 -4.421875 11.328125 -4.421875 C 11.640625 -4.421875 11.941406 -4.5 12.234375 -4.65625 C 12.535156 -4.8125 12.816406 -4.988281 13.078125 -5.1875 C 13.347656 -5.394531 13.582031 -5.609375 13.78125 -5.828125 C 13.988281 -6.046875 14.140625 -6.21875 14.234375 -6.34375 L 15.984375 -14.5625 C 15.734375 -14.914062 15.441406 -15.265625 15.109375 -15.609375 C 14.773438 -15.953125 14.375 -16.125 13.90625 -16.125 Z M 13.90625 -16.125 "/></g></g></g><g fill="#f57d11" fill-opacity="1"><g transform="translate(273.845393, 50.548142)"><g><path d="M 14.8125 -20.734375 C 18.53125 -20.734375 21.238281 -20.070312 22.9375 -18.75 C 24.71875 -17.375 25.609375 -15.085938 25.609375 -11.890625 C 25.609375 -9.921875 25.28125 -8.144531 24.625 -6.5625 C 23.96875 -4.976562 23.046875 -3.664062 21.859375 -2.625 C 19.472656 -0.625 16.023438 0.375 11.515625 0.375 C 7.660156 0.375 4.90625 -0.359375 3.25 -1.828125 C 1.457031 -3.367188 0.5625 -5.671875 0.5625 -8.734375 C 0.5625 -10.773438 0.976562 -12.625 1.8125 -14.28125 C 2.644531 -15.945312 3.84375 -17.328125 5.40625 -18.421875 C 7.695312 -19.960938 10.832031 -20.734375 14.8125 -20.734375 Z M 11.609375 -2.8125 C 12.390625 -2.8125 13.066406 -3.25 13.640625 -4.125 C 14.222656 -5.007812 14.6875 -6.085938 15.03125 -7.359375 C 15.382812 -8.628906 15.644531 -9.941406 15.8125 -11.296875 C 15.988281 -12.660156 16.078125 -13.847656 16.078125 -14.859375 C 16.078125 -15.734375 15.988281 -16.394531 15.8125 -16.84375 C 15.644531 -17.300781 15.28125 -17.53125 14.71875 -17.53125 C 13.863281 -17.53125 13.128906 -17.078125 12.515625 -16.171875 C 11.910156 -15.265625 11.421875 -14.179688 11.046875 -12.921875 C 10.671875 -11.671875 10.394531 -10.382812 10.21875 -9.0625 C 10.050781 -7.75 9.96875 -6.6875 9.96875 -5.875 C 9.96875 -3.832031 10.515625 -2.8125 11.609375 -2.8125 Z M 11.609375 -2.8125 "/></g></g></g><g fill="#f57d11" fill-opacity="1"><g transform="translate(300.871165, 50.548142)"><g><path d="M 19.546875 -31.578125 L 29.1875 -31.578125 L 22.46875 0 L 14.859375 0 L 14 -3.015625 L 13.671875 -3.015625 C 13.484375 -2.722656 13.191406 -2.378906 12.796875 -1.984375 C 12.410156 -1.597656 11.921875 -1.222656 11.328125 -0.859375 C 10.734375 -0.503906 10.023438 -0.210938 9.203125 0.015625 C 8.390625 0.253906 7.453125 0.375 6.390625 0.375 C 5.296875 0.375 4.363281 0.210938 3.59375 -0.109375 C 2.820312 -0.441406 2.191406 -0.890625 1.703125 -1.453125 C 1.222656 -2.015625 0.875 -2.695312 0.65625 -3.5 C 0.4375 -4.300781 0.328125 -5.171875 0.328125 -6.109375 C 0.328125 -6.515625 0.359375 -7.164062 0.421875 -8.0625 C 0.484375 -8.957031 0.628906 -9.941406 0.859375 -11.015625 C 1.097656 -12.097656 1.441406 -13.210938 1.890625 -14.359375 C 2.347656 -15.503906 2.960938 -16.546875 3.734375 -17.484375 C 4.503906 -18.421875 5.453125 -19.195312 6.578125 -19.8125 C 7.703125 -20.425781 9.066406 -20.734375 10.671875 -20.734375 C 11.171875 -20.734375 11.703125 -20.679688 12.265625 -20.578125 C 12.828125 -20.484375 13.363281 -20.3125 13.875 -20.0625 C 14.394531 -19.8125 14.859375 -19.453125 15.265625 -18.984375 C 15.679688 -18.515625 15.984375 -17.90625 16.171875 -17.15625 L 16.5 -17.15625 Z M 13.8125 -16.125 C 13.0625 -16.125 12.4375 -15.707031 11.9375 -14.875 C 11.4375 -14.039062 11.03125 -13.078125 10.71875 -11.984375 C 10.40625 -10.890625 10.175781 -9.789062 10.03125 -8.6875 C 9.894531 -7.59375 9.828125 -6.78125 9.828125 -6.25 C 9.828125 -5.625 9.921875 -5.097656 10.109375 -4.671875 C 10.296875 -4.253906 10.65625 -4.046875 11.1875 -4.046875 C 11.5 -4.046875 11.800781 -4.113281 12.09375 -4.25 C 12.394531 -4.394531 12.675781 -4.566406 12.9375 -4.765625 C 13.207031 -4.972656 13.4375 -5.1875 13.625 -5.40625 C 13.8125 -5.625 13.96875 -5.8125 14.09375 -5.96875 L 15.9375 -14.515625 C 15.71875 -14.867188 15.425781 -15.222656 15.0625 -15.578125 C 14.695312 -15.941406 14.28125 -16.125 13.8125 -16.125 Z M 13.8125 -16.125 "/></g></g></g><g fill="#f57d11" fill-opacity="1"><g transform="translate(327.990947, 50.548142)"><g><path d="M 9.078125 0 L -0.46875 0 L 3.8125 -20.203125 L 13.4375 -20.203125 Z M 14.65625 -26.359375 C 14.65625 -25.640625 14.503906 -25.015625 14.203125 -24.484375 C 13.910156 -23.953125 13.519531 -23.5 13.03125 -23.125 C 12.550781 -22.75 12 -22.46875 11.375 -22.28125 C 10.75 -22.09375 10.109375 -22 9.453125 -22 C 8.191406 -22 7.140625 -22.296875 6.296875 -22.890625 C 5.453125 -23.484375 5.03125 -24.421875 5.03125 -25.703125 C 5.03125 -26.398438 5.171875 -27.019531 5.453125 -27.5625 C 5.734375 -28.113281 6.113281 -28.566406 6.59375 -28.921875 C 7.082031 -29.285156 7.648438 -29.5625 8.296875 -29.75 C 8.941406 -29.9375 9.609375 -30.03125 10.296875 -30.03125 C 11.515625 -30.03125 12.546875 -29.734375 13.390625 -29.140625 C 14.234375 -28.546875 14.65625 -27.617188 14.65625 -26.359375 Z M 14.65625 -26.359375 "/></g></g></g><g fill="#f57d11" fill-opacity="1"><g transform="translate(341.762338, 50.548142)"><g><path d="M 12.59375 -17.203125 C 13.25 -17.828125 13.988281 -18.40625 14.8125 -18.9375 C 15.53125 -19.375 16.375 -19.78125 17.34375 -20.15625 C 18.3125 -20.539062 19.394531 -20.734375 20.59375 -20.734375 C 22.21875 -20.734375 23.5625 -20.316406 24.625 -19.484375 C 25.6875 -18.648438 26.21875 -17.515625 26.21875 -16.078125 C 26.21875 -15.671875 26.171875 -15.175781 26.078125 -14.59375 C 25.984375 -14.007812 25.875 -13.40625 25.75 -12.78125 C 25.625 -12.15625 25.488281 -11.519531 25.34375 -10.875 C 25.207031 -10.238281 25.09375 -9.671875 25 -9.171875 L 23.03125 0 L 13.484375 0 L 16.078125 -12.265625 C 16.140625 -12.671875 16.21875 -13.082031 16.3125 -13.5 C 16.40625 -13.925781 16.453125 -14.3125 16.453125 -14.65625 C 16.453125 -15.132812 16.332031 -15.519531 16.09375 -15.8125 C 15.863281 -16.113281 15.515625 -16.265625 15.046875 -16.265625 C 14.472656 -16.265625 13.925781 -16.0625 13.40625 -15.65625 C 12.894531 -15.25 12.5 -14.898438 12.21875 -14.609375 L 9.125 0 L -0.46875 0 L 3.8125 -20.203125 L 11.46875 -20.203125 L 12.3125 -17.203125 Z M 12.59375 -17.203125 "/></g></g></g><g fill="#f57d11" fill-opacity="1"><g transform="translate(369.305131, 50.548142)"><g><path d="M 19.171875 -20.203125 L 26.796875 -20.203125 L 22.9375 -1.921875 C 22.65625 -0.515625 22.179688 0.78125 21.515625 1.96875 C 20.859375 3.164062 19.941406 4.203125 18.765625 5.078125 C 17.597656 5.953125 16.128906 6.640625 14.359375 7.140625 C 12.585938 7.640625 10.429688 7.890625 7.890625 7.890625 C 7.421875 7.890625 6.859375 7.878906 6.203125 7.859375 C 5.546875 7.847656 4.875 7.832031 4.1875 7.8125 C 3.5 7.800781 2.835938 7.78125 2.203125 7.75 C 1.578125 7.71875 1.078125 7.6875 0.703125 7.65625 L 1.59375 4.28125 C 2.601562 4.4375 3.628906 4.519531 4.671875 4.53125 C 5.722656 4.550781 6.625 4.5625 7.375 4.5625 C 8.3125 4.5625 9.101562 4.472656 9.75 4.296875 C 10.394531 4.128906 10.925781 3.851562 11.34375 3.46875 C 11.769531 3.09375 12.113281 2.59375 12.375 1.96875 C 12.644531 1.34375 12.859375 0.578125 13.015625 -0.328125 L 13.578125 -3.390625 L 13.25 -3.390625 C 13.0625 -3.109375 12.785156 -2.769531 12.421875 -2.375 C 12.066406 -1.976562 11.609375 -1.597656 11.046875 -1.234375 C 10.484375 -0.878906 9.816406 -0.582031 9.046875 -0.34375 C 8.273438 -0.113281 7.40625 0 6.4375 0 C 5.34375 0 4.410156 -0.160156 3.640625 -0.484375 C 2.867188 -0.816406 2.25 -1.269531 1.78125 -1.84375 C 1.3125 -2.425781 0.96875 -3.117188 0.75 -3.921875 C 0.53125 -4.722656 0.421875 -5.59375 0.421875 -6.53125 C 0.421875 -6.9375 0.453125 -7.5625 0.515625 -8.40625 C 0.578125 -9.257812 0.722656 -10.21875 0.953125 -11.28125 C 1.191406 -12.34375 1.535156 -13.429688 1.984375 -14.546875 C 2.441406 -15.660156 3.054688 -16.671875 3.828125 -17.578125 C 4.597656 -18.484375 5.550781 -19.234375 6.6875 -19.828125 C 7.832031 -20.429688 9.222656 -20.734375 10.859375 -20.734375 C 11.359375 -20.734375 11.90625 -20.679688 12.5 -20.578125 C 13.09375 -20.484375 13.671875 -20.3125 14.234375 -20.0625 C 14.804688 -19.8125 15.3125 -19.453125 15.75 -18.984375 C 16.1875 -18.515625 16.53125 -17.90625 16.78125 -17.15625 L 17.0625 -17.15625 Z M 13.90625 -16.125 C 13.15625 -16.125 12.53125 -15.722656 12.03125 -14.921875 C 11.53125 -14.117188 11.125 -13.1875 10.8125 -12.125 C 10.5 -11.0625 10.269531 -10.003906 10.125 -8.953125 C 9.988281 -7.898438 9.921875 -7.125 9.921875 -6.625 C 9.921875 -6 10.019531 -5.472656 10.21875 -5.046875 C 10.425781 -4.628906 10.796875 -4.421875 11.328125 -4.421875 C 11.640625 -4.421875 11.941406 -4.5 12.234375 -4.65625 C 12.535156 -4.8125 12.816406 -4.988281 13.078125 -5.1875 C 13.347656 -5.394531 13.582031 -5.609375 13.78125 -5.828125 C 13.988281 -6.046875 14.140625 -6.21875 14.234375 -6.34375 L 15.984375 -14.5625 C 15.734375 -14.914062 15.441406 -15.265625 15.109375 -15.609375 C 14.773438 -15.953125 14.375 -16.125 13.90625 -16.125 Z M 13.90625 -16.125 "/></g></g></g></svg>